<?xml version="1.0" standalone="no"?>
<!DOCTYPE svg PUBLIC "-//W3C//DTD SVG 20010904//EN"
 "http://www.w3.org/TR/2001/REC-SVG-20010904/DTD/svg10.dtd">
<svg version="1.0" xmlns="http://www.w3.org/2000/svg"
 width="512.000000pt" height="512.000000pt" viewBox="0 0 512.000000 512.000000"
 preserveAspectRatio="xMidYMid meet">
<metadata>
Created by potrace 1.14, written by Peter Selinger 2001-2017
</metadata>
<g transform="translate(0.000000,512.000000) scale(0.100000,-0.100000)"
fill="#000000" stroke="none">
<path d="M2345 5109 c-773 -73 -1466 -554 -1805 -1254 -107 -220 -166 -408
-206 -660 -25 -153 -25 -495 0 -655 62 -397 225 -770 476 -1085 298 -373 764
-667 1230 -774 l95 -22 155 -307 c153 -303 156 -307 200 -330 56 -28 84 -28
140 1 44 22 47 26 199 328 l155 306 95 22 c481 114 911 385 1230 775 206 252
373 596 445 918 229 1021 -270 2060 -1208 2519 -371 181 -788 257 -1201 218z
m397 -774 c209 -28 396 -91 570 -194 109 -64 184 -123 286 -224 222 -218 356
-474 418 -792 27 -136 25 -386 -4 -533 -107 -537 -486 -965 -1002 -1130 -168
-54 -256 -67 -455 -66 -198 0 -309 18 -469 73 -514 178 -884 609 -983 1144
-24 127 -23 388 0 517 99 534 485 977 999 1144 213 69 424 90 640 61z"/>
</g>
</svg>
